<svg id="Ebene_1" data-name="Ebene 1" xmlns="http://www.w3.org/2000/svg" viewBox="0 0 703.54 316.7"><defs><style>.cls-1{fill:#97aeca;}.cls-2{fill:#4b6380;}.cls-3{font-size:24.91px;}.cls-13,.cls-15,.cls-3,.cls-5{fill:#ccbda1;font-family:Arial-Black, Arial;font-weight:800;}.cls-4{letter-spacing:0.02em;}.cls-5{font-size:30.26px;}.cls-6{letter-spacing:0.02em;}.cls-7{fill:#ffc107;}.cls-8{fill:#dea806;}.cls-9{fill:#607d8b;}.cls-10{fill:#546d79;}.cls-11{fill:#ffd54f;}.cls-12{fill:#deb945;}.cls-13{font-size:17.9px;}.cls-14{letter-spacing:-0.02em;}.cls-15{font-size:20px;}</style></defs><title>logo</title><path class="cls-1" d="M157.1,97.43c.4,12-8.4,21.6-22.4,21.6-12.4,0-21.2-9.6-21.2-21.6,0-12.4,9.2-22,22-22C148.7,75.43,157.1,85,157.1,97.43Zm-39.2,248V151.83h35.2v193.6Z" transform="translate(-73.14 -33.13)"/><path class="cls-1" d="M378.69,61.43v234c0,17.2.4,36.8,1.6,50h-31.6l-1.6-33.6h-.8c-10.8,21.6-34.4,38-66,38-46.8,0-82.8-39.6-82.8-98.4-.4-64.4,39.6-104,86.8-104,29.6,0,49.6,14,58.4,29.6h.8V61.43Zm-35.2,169.2a62.14,62.14,0,0,0-1.6-14.8c-5.2-22.4-24.4-40.8-50.8-40.8-36.4,0-58,32-58,74.8,0,39.2,19.2,71.6,57.2,71.6,23.6,0,45.2-15.6,51.6-42a61.14,61.14,0,0,0,1.6-15.2Z" transform="translate(-73.14 -33.13)"/><path class="cls-1" d="M456.69,255c.8,47.6,31.2,67.2,66.4,67.2,25.2,0,40.4-4.4,53.6-10l6,25.2c-12.4,5.6-33.6,12-64.4,12-59.6,0-95.2-39.2-95.2-97.6s34.4-104.4,90.8-104.4c63.2,0,80,55.6,80,91.2a132.76,132.76,0,0,1-1.2,16.4Zm103.2-25.2c.4-22.4-9.2-57.2-48.8-57.2-35.6,0-51.2,32.8-54,57.2Z" transform="translate(-73.14 -33.13)"/><path class="cls-1" d="M744.69,345.43l-2.8-24.4h-1.2c-10.8,15.2-31.6,28.8-59.2,28.8-39.2,0-59.2-27.6-59.2-55.6,0-46.8,41.6-72.4,116.4-72v-4c0-16-4.4-44.8-44-44.8-18,0-36.8,5.6-50.4,14.4l-8-23.2c16-10.4,39.2-17.2,63.6-17.2,59.2,0,73.6,40.4,73.6,79.2V299c0,16.8.8,33.2,3.2,46.4Zm-5.2-98.8c-38.4-.8-82,6-82,43.6,0,22.8,15.2,33.6,33.2,33.6,25.2,0,41.2-16,46.8-32.4a36.74,36.74,0,0,0,2-11.2Z" transform="translate(-73.14 -33.13)"/><path class="cls-2" d="M153.33,97.43c.4,12-8.4,21.6-22.4,21.6-12.4,0-21.2-9.6-21.2-21.6,0-12.4,9.2-22,22-22C144.93,75.43,153.33,85,153.33,97.43Zm-39.2,248V151.83h35.2v193.6Z" transform="translate(-73.14 -33.13)"/><path class="cls-2" d="M374.93,61.43v234c0,17.2.4,36.8,1.6,50h-31.6l-1.6-33.6h-.8c-10.8,21.6-34.4,38-66,38-46.8,0-82.8-39.6-82.8-98.4-.4-64.4,39.6-104,86.8-104,29.6,0,49.6,14,58.4,29.6h.8V61.43Zm-35.2,169.2a62.14,62.14,0,0,0-1.6-14.8c-5.2-22.4-24.4-40.8-50.8-40.8-36.4,0-58,32-58,74.8,0,39.2,19.2,71.6,57.2,71.6,23.6,0,45.2-15.6,51.6-42a61.14,61.14,0,0,0,1.6-15.2Z" transform="translate(-73.14 -33.13)"/><path class="cls-2" d="M452.93,255c.8,47.6,31.2,67.2,66.4,67.2,25.2,0,40.4-4.4,53.6-10l6,25.2c-12.4,5.6-33.6,12-64.4,12-59.6,0-95.2-39.2-95.2-97.6s34.4-104.4,90.8-104.4c63.2,0,80,55.6,80,91.2a132.76,132.76,0,0,1-1.2,16.4Zm103.2-25.2c.4-22.4-9.2-57.2-48.8-57.2-35.6,0-51.2,32.8-54,57.2Z" transform="translate(-73.14 -33.13)"/><path class="cls-2" d="M740.92,345.43l-2.8-24.4h-1.2c-10.8,15.2-31.6,28.8-59.19,28.8-39.2,0-59.2-27.6-59.2-55.6,0-46.8,41.6-72.4,116.39-72v-4c0-16-4.4-44.8-44-44.8-18,0-36.79,5.6-50.39,14.4l-8-23.2c16-10.4,39.2-17.2,63.59-17.2,59.2,0,73.6,40.4,73.6,79.2V299c0,16.8.8,33.2,3.2,46.4Zm-5.2-98.8c-38.4-.8-82,6-82,43.6,0,22.8,15.2,33.6,33.19,33.6,25.2,0,41.2-16,46.8-32.4a36.74,36.74,0,0,0,2-11.2Z" transform="translate(-73.14 -33.13)"/><text class="cls-3" transform="matrix(0, -0.89, 1, 0, 69.52, 290.62)">Intelligent<tspan class="cls-4" x="139.75" y="0">l</tspan><tspan x="148.47" y="0">y</tspan></text><text class="cls-5" transform="matrix(-0.03, -1, 1, -0.03, 689.55, 272.09)"><tspan class="cls-6">A</tspan><tspan x="24.05" y="0">pp</tspan></text><path class="cls-7" d="M165.51,91.47a34,34,0,0,1-13,26.74,16.33,16.33,0,0,0-6.22,9.77l-.24,0H116.9l-.34,0a14.79,14.79,0,0,0-5.55-9.33,34,34,0,1,1,54.5-27.18Z" transform="translate(-73.14 -33.13)"/><path class="cls-8" d="M131.48,57.44a34.82,34.82,0,0,0-7.29.78A34,34,0,0,0,111,118.65a14.79,14.79,0,0,1,5.55,9.33l.34,0h14.58V57.44Z" transform="translate(-73.14 -33.13)"/><path class="cls-7" d="M163.43,63.17a3.59,3.59,0,0,1-2.58-1.07,3.66,3.66,0,0,1,0-5.16l6.73-6.73a3.65,3.65,0,1,1,5.16,5.16L166,62.1A3.67,3.67,0,0,1,163.43,63.17Z" transform="translate(-73.14 -33.13)"/><path class="cls-7" d="M186.17,95.12h-9.51a3.65,3.65,0,0,1,0-7.3h9.51a3.65,3.65,0,0,1,0,7.3Z" transform="translate(-73.14 -33.13)"/><path class="cls-7" d="M170.16,133.79a3.59,3.59,0,0,1-2.58-1.07L160.85,126a3.65,3.65,0,0,1,5.16-5.16l6.73,6.73a3.65,3.65,0,0,1-2.58,6.23Z" transform="translate(-73.14 -33.13)"/><path class="cls-9" d="M146.31,128a14,14,0,0,0-.24,2.53V141.3a8.55,8.55,0,0,1-8.51,8.51H125.4c-4.08,0-8.5-3.11-8.5-9.92v-8.6a15.18,15.18,0,0,0-.34-3.31l.34,0h29.17Z" transform="translate(-73.14 -33.13)"/><path class="cls-10" d="M131.48,127.93H116.9l-.34,0a15.18,15.18,0,0,1,.34,3.31v8.6c0,6.81,4.42,9.92,8.5,9.92h6.08Z" transform="translate(-73.14 -33.13)"/><path class="cls-7" d="M131.48,49.94a3.65,3.65,0,0,1-3.64-3.65V36.78a3.65,3.65,0,1,1,7.29,0v9.51A3.66,3.66,0,0,1,131.48,49.94Z" transform="translate(-73.14 -33.13)"/><path class="cls-8" d="M131.48,33.13a3.64,3.64,0,0,0-3.64,3.65v9.51a3.65,3.65,0,0,0,3.64,3.65Z" transform="translate(-73.14 -33.13)"/><path class="cls-7" d="M99.54,63.17A3.59,3.59,0,0,1,97,62.1l-6.73-6.73a3.65,3.65,0,0,1,5.16-5.16l6.73,6.73a3.65,3.65,0,0,1-2.58,6.23Z" transform="translate(-73.14 -33.13)"/><path class="cls-8" d="M90.23,50.22a3.66,3.66,0,0,0,0,5.16L97,62.11a3.63,3.63,0,0,0,5.15,0Z" transform="translate(-73.14 -33.13)"/><path class="cls-7" d="M86.3,95.12H76.79a3.65,3.65,0,1,1,0-7.3H86.3a3.65,3.65,0,0,1,0,7.3Z" transform="translate(-73.14 -33.13)"/><path class="cls-8" d="M90,91.47H73.14a3.66,3.66,0,0,0,3.65,3.65H86.3A3.65,3.65,0,0,0,90,91.47Z" transform="translate(-73.14 -33.13)"/><path class="cls-7" d="M92.81,133.79a3.59,3.59,0,0,1-2.58-1.07,3.66,3.66,0,0,1,0-5.16L97,120.83a3.65,3.65,0,0,1,5.16,5.16l-6.73,6.73A3.63,3.63,0,0,1,92.81,133.79Z" transform="translate(-73.14 -33.13)"/><path class="cls-8" d="M102.11,120.84,90.23,132.72a3.63,3.63,0,0,0,2.58,1.07,3.59,3.59,0,0,0,2.57-1.07l6.73-6.73a3.63,3.63,0,0,0,0-5.15Z" transform="translate(-73.14 -33.13)"/><path class="cls-11" d="M149.71,93.9a3.64,3.64,0,0,1-3.64-3.65A13.38,13.38,0,0,0,132.7,76.89a3.65,3.65,0,1,1,0-7.3,20.69,20.69,0,0,1,20.66,20.66A3.64,3.64,0,0,1,149.71,93.9Z" transform="translate(-73.14 -33.13)"/><path class="cls-12" d="M130.2,73.22c-.38,0-.76,0-1.15,0a3.65,3.65,0,0,0,3.65,3.65,13.38,13.38,0,0,1,13.37,13.36,3.64,3.64,0,0,0,3.64,3.65C151.73,93.9,152.41,73.22,130.2,73.22Z" transform="translate(-73.14 -33.13)"/><text class="cls-13" transform="translate(383.95 213.76) scale(0.99 1)">Educ<tspan class="cls-14" x="48.73" y="0">a</tspan><tspan x="60.37" y="0">tional</tspan></text><text class="cls-15" transform="matrix(0.52, -0.86, 0.86, 0.52, 166.9, 166.17)">D</text><text class="cls-15" transform="translate(174.59 153.6) rotate(-43.68)">e</text><text class="cls-15" transform="matrix(0.86, -0.51, 0.51, 0.86, 183.69, 144.86)">s</text><text class="cls-15" transform="translate(193.74 139.11) rotate(-20.25)">i</text><text class="cls-15" transform="translate(199.29 136.64) rotate(-8.75)">g</text><text class="cls-15" transform="translate(211.65 134.62) rotate(6.43)">n</text><text class="cls-15" transform="translate(224.14 135.95) rotate(21.35)">e</text><text class="cls-15" transform="translate(235.88 140.47) rotate(34.9)">d</text></svg>